<?xml version="1.0" encoding="UTF-8" standalone="no"?>
<!-- Created with Inkscape (http://www.inkscape.org/) -->

<svg
   version="1.1"
   id="svg1"
   width="396"
   height="252"
   viewBox="0 0 396 252"
   sodipodi:docname="BTV_News_Logo.svg"
   inkscape:version="1.4.3 (0d15f75, 2025-12-25)"
   xmlns:inkscape="http://www.inkscape.org/namespaces/inkscape"
   xmlns:sodipodi="http://sodipodi.sourceforge.net/DTD/sodipodi-0.dtd"
   xmlns="http://www.w3.org/2000/svg"
   xmlns:svg="http://www.w3.org/2000/svg">
  <g
     style="display:inline">
    <path
       d="m 292.23056,16.387223 c -96.6225,-25.9760359 -186.50642,0 -186.50642,0 -14.020598,65.97261 0,143.792037 0,143.792037 109.99096,22.49807 184.00662,0 184.00662,0 16.19432,-59.66881 2.4998,-143.792037 2.4998,-143.792037 z M 277.23179,148.33244 c 0,0 -76.9502,30.54086 -158.24788,0 0,0 -5.21696,-9.99914 -8.47756,-27.93239 h 176.18119 c -1.84767,9.45572 -4.89091,18.91142 -9.45575,27.93239 z m 10.75999,-35.32305 H 109.41949 c -2.71717,-20.867786 -2.28243,-49.995726 9.56442,-85.210102 0,0 75.75466,-33.6927656 158.24788,0 0,0 16.95513,41.300811 10.75999,85.210102 z"
       fill="#006c4e"
       id="path12"
       style="display:inline;fill:#bba65f;fill-opacity:1;stroke-width:1.03109" />
    <ellipse
       cx="198.58768"
       cy="72.449417"
       fill="#e53143"
       id="circle22"
       rx="39.650696"
       ry="39.650558"
       style="display:inline;fill:#eb2128;fill-opacity:1;stroke-width:1.08403" />
    <path
       style="display:inline;opacity:1;fill:#eb2128;fill-opacity:1;stroke:#d78827;stroke-width:0;stroke-opacity:0.988235;paint-order:markers fill stroke"
       d="M 4.6056161,246.9606 39.386415,186.71849 H 183.7227 l -34.81258,60.29716 H 4.5742187 Z"
       id="path1" />
    <path
       style="opacity:1;fill:#bba65f;fill-opacity:1;stroke:#d78827;stroke-width:0;stroke-opacity:0.988235;paint-order:markers fill stroke"
       d="M 183.69922,186.72266 H 364.0625 l -35.18359,60.29296 H 148.89017 Z"
       id="path2" />
    <path
       style="opacity:1;fill:#bba65f;fill-opacity:1;stroke:#d78827;stroke-width:0;stroke-opacity:0.988235;paint-order:markers fill stroke"
       d="m 369.10974,186.72161 h 12.19759 l -35.31514,60.29792 h -12.33594 z"
       id="path3" />
    <path
       style="opacity:1;fill:#bba65f;fill-opacity:1;stroke:#d78827;stroke-width:0;stroke-opacity:0.988235;paint-order:markers fill stroke"
       d="m 385.39844,186.71875 h 6.55969 l -35.49719,60.30078 h -6.66405 z"
       id="path4" />
    <path
       id="path6"
       style="display:inline;opacity:1;fill:#ffffff;fill-opacity:1;stroke:#d78827;stroke-width:0;stroke-opacity:0.988235;paint-order:markers fill stroke"
       d="m 35.515625,193.41406 v 0.0176 l -8.828125,15.291 v 0.0215 l -0.0039,-0.006 v 32.73828 h 24.537109 c 0,0 1.013595,0.0237 1.498047,-0.10156 1.592581,-0.41186 3.093465,-1.19123 4.46875,-2.09375 2.201585,-1.44477 4.468634,-3.03252 5.921875,-5.22852 1.336849,-2.02012 2.288981,-4.47214 2.298828,-6.89453 0.0093,-2.29202 -0.877236,-4.6171 -2.123047,-6.54101 -0.901373,-1.39199 -2.31045,-2.41482 -3.689453,-3.33594 -0.757936,-0.50627 -2.470703,-1.17188 -2.470703,-1.17187 0,0 2.086285,-1.07303 2.9375,-1.85938 0.841662,-0.77752 1.599913,-1.70169 2.0625,-2.75 0.676314,-1.53265 0.970298,-3.26258 0.9375,-4.9375 -0.04353,-2.22318 -0.388125,-4.57434 -1.5,-6.5 -0.840259,-1.45525 -2.356022,-2.41234 -3.6875,-3.4375 -0.780198,-0.60071 -1.607694,-1.15787 -2.5,-1.57422 -1.198984,-0.55945 -2.506269,-0.93639 -3.767578,-1.33594 -0.400874,-0.12699 -0.800562,-0.18182 -1.214844,-0.2539 -0.357525,-0.0622 -1.087891,-0.0469 -1.08789,-0.0469 z m 4.722656,10.23242 h 6.320313 c 0,0 0.714388,0.0765 0.980468,0.24024 1.584044,0.97477 2.632127,1.61549 2.677735,4.53711 0.05045,3.23212 -0.991851,3.25089 -2.373047,4.13867 -0.27824,0.17884 -0.984375,0.21875 -0.984375,0.21875 h -6.621094 z m 0,17.94727 h 6.902344 c 0,0 0.900467,-0.0389 1.273437,0.11523 0.597192,0.24683 3.077853,1.16005 3.080079,4.29102 0.0025,3.52085 -1.299478,3.99662 -2.326172,4.5625 -0.559502,0.30838 -1.898438,0.26562 -1.898438,0.26562 h -7.03125 z" />
    <path
       style="display:inline;opacity:1;fill:#ffffff;fill-opacity:1;stroke:#d78827;stroke-width:0;stroke-opacity:0.988235;paint-order:markers fill stroke"
       d="M 62.883502,193.40625 H 107.5772 V 204.625 H 92.019776 v 36.84644 H 78.073936 V 204.625 H 62.883502 Z"
       id="path7" />
    <path
       style="opacity:1;fill:#ffffff;fill-opacity:1;stroke:#d78827;stroke-width:0;stroke-opacity:0.988235;paint-order:markers fill stroke"
       d="m 121.49219,193.40234 h -13.8628 l 18.10499,48.07032 H 139.75 l 27.89844,-48.06641 H 153.5 l -19.5625,32.90625 z"
       id="path8" />
    <path
       style="opacity:1;fill:#000000;fill-opacity:1;stroke:#d78827;stroke-width:0;stroke-opacity:0.988235;paint-order:markers fill stroke"
       d="m 173.74939,241.45487 h 5.78944 l 6.08617,-37.39237 16.86328,37.39062 h 4.63672 l 8.5625,-43.32812 h -5.09375 l -6.46875,35.75 -16.20703,-35.75391 h -5.74959 z"
       id="path9" />
    <path
       style="opacity:1;fill:#000000;fill-opacity:1;stroke:#d78827;stroke-width:0;stroke-opacity:0.988235;paint-order:markers fill stroke"
       d="m 217.51267,241.44382 h 24.54983 l 0.96875,-5.25632 h -19.125 l 3.21875,-15.5 h 16.3125 l 1.375,-4.5 H 228 l 2.375,-13.625 h 17.875 l 1.44531,-4.43359 h -24.19454 z"
       id="path10" />
    <path
       style="opacity:1;fill:#000000;fill-opacity:1;stroke:#d78827;stroke-width:0;stroke-opacity:0.988235;paint-order:markers fill stroke"
       d="m 257.39062,241.4375 h 5.47633 l 17.67766,-37.08364 1.69367,37.08364 h 5.3774 l 21.4976,-43.31641 h -5.49931 L 286.4375,234.875 284.79297,198.11719 h -6.10451 L 261.375,235 l -2,-36.88281 h -5.34689 z"
       id="path11" />
    <path
       style="opacity:1;fill:#000000;fill-opacity:1;stroke:#d78827;stroke-width:0;stroke-opacity:0.988235;paint-order:markers fill stroke"
       d="m 308.5625,234.03125 -2.25,3.65625 c 0,0 5.6061,3.73933 11.8125,3.875 3.82681,0.0837 7.89947,-1.27966 10.875,-3.6875 2.46915,-1.99807 4.45912,-5.01717 4.65403,-8.1875 0.27758,-4.51507 -1.28408,-6.8599 -3.46653,-9.4375 -2.02246,-2.38865 -5.13816,-2.73004 -8.14062,-4.67188 -2.27343,-1.47032 -4.97065,-3.68673 -5.10938,-6.39062 -0.13235,-2.57944 2.15438,-5.01851 4.3125,-6.4375 1.62861,-1.07083 3.80649,-1.21019 5.75,-1.0625 2.59502,0.19719 7.375,2.5625 7.375,2.5625 l 2.6875,-3.9375 c 0,0 -6.49491,-2.79996 -9.9375,-2.8125 -3.21952,-0.0117 -6.54873,0.91112 -9.3125,2.5625 -1.63177,0.975 -2.97429,2.48625 -3.9375,4.125 -1.10523,1.88039 -2.11139,4.0758 -1.9375,6.25 0.21689,2.71191 1.72591,5.36444 3.625,7.3125 1.69788,1.74165 3.68581,2.15161 6.45312,3.40625 2.23164,1.01178 4.57558,2.53203 5.79688,4.65625 0.71227,1.23886 0.81849,2.8441 0.5625,4.25 -0.35564,1.95318 -1.22643,4.05593 -2.8125,5.25 -2.05988,1.55078 -4.98657,1.73722 -7.5625,1.625 -3.2885,-0.14326 -9.4375,-2.90625 -9.4375,-2.90625 z"
       id="path13"
       sodipodi:nodetypes="ccssssssssccssssasssssc" />
  </g>
</svg>
